# xmcd CD database file
#
# Track frame offsets:
#	150
#	18570
#	35245
#	53690
#
# Disc length: 936 seconds
#
# Revision: 2
# Processed by: cddbd v1.5PL3 Copyright (c) Steve Scherf et al.
# Submitted via: CDex 1.50beta10
#
DISCID=2f03a604
DTITLE=森岡純 - 終らない物語
DYEAR=1996
DGENRE=Anime
TTITLE0=終らない物語
TTITLE1=少年の丘
TTITLE2=終らない物語(オリジナル・カラオケ)
TTITLE3=少年の丘(オリジナル・カラオケ)
EXTD=YEAR: 1996
EXTT0=
EXTT1=
EXTT2=
EXTT3=
PLAYORDER=
